<svg width="30" height="30" viewBox="0 0 40 44" fill="none" xmlns="http://www.w3.org/2000/svg">
<path d="M32.5002 9V31.1C32.5002 34.7404 32.5002 36.5604 31.8189 37.951C31.2197 39.1741 30.2637 40.1684 29.0877 40.7915C27.7506 41.5 26.0006 41.5 22.5002 41.5H17.5002C13.9998 41.5 12.2497 41.5 10.9127 40.7915C9.7367 40.1684 8.78058 39.1741 8.18137 37.951C7.50016 36.5604 7.50016 34.7404 7.50016 31.1V9M3.3335 9H36.6668M28.3335 9L27.7697 7.24082C27.2233 5.53604 26.95 4.68365 26.4433 4.05346C25.9958 3.49695 25.4212 3.06619 24.772 2.80069C24.0368 2.5 23.1731 2.5 21.4452 2.5H18.5552C16.8272 2.5 15.9635 2.5 15.2283 2.80069C14.5792 3.06619 14.0045 3.49695 13.557 4.05346C13.0503 4.68365 12.7771 5.53604 12.2307 7.24082L11.6668 9" stroke="black" stroke-width="5" stroke-linecap="round" stroke-linejoin="round"/>
</svg>
